# xmcd
#
# Track frame offsets: 
#        150
#        15180
#        32122
#        47060
#        60922
#        92340
#        116797
#        132872
#        150452
#        162820
#
# Disc length: 2463 seconds
#
# Revision: 4
# Processed by: cddbd v1.5.2PL0 Copyright (c) Steve Scherf et al.
# Submitted via: ExactAudioCopyFreeDBPlugin 1.0
#
DISCID=69099d0a
DTITLE=The O'Kanes - Tired of the Runnin'
DYEAR=1988
DGENRE=Country
TTITLE0=One True Love
TTITLE1=All Because of You
TTITLE2=If I Could Be There
TTITLE3=Blue Love
TTITLE4=Rocky Road
TTITLE5=Highway 55
TTITLE6=Tired of the Runnin'
TTITLE7=In My Heart
TTITLE8=I'm Lonely
TTITLE9=Isn't That So
EXTD=
EXTT0=
EXTT1=
EXTT2=
EXTT3=
EXTT4=
EXTT5=
EXTT6=
EXTT7=
EXTT8=
EXTT9=
PLAYORDER=
